<svg width="512" height="512" viewBox="0 0 512 512" fill="none" xmlns="http://www.w3.org/2000/svg">
<path fill-rule="evenodd" clip-rule="evenodd" d="M132.014 218.921C130.726 218.641 219.663 372.959 221.92 376.383C224.177 379.807 228.523 378.923 230.047 376.891C231.57 374.859 250.883 336.508 265.602 307.303L272.714 294.097L283.888 275.811L299.127 252.446L313.349 232.128L327.571 212.826L339.762 196.572L351.952 180.318L362.111 167.111L367.191 160.508C367.82 159.185 367.864 158.555 367.191 157.968C366.638 157.562 366.303 157.549 365.667 157.968L355 167.111L331.635 187.429L303.19 212.826L281.856 232.128L261.539 252.446L244.269 269.716C244.269 269.716 241.815 272.74 241.221 273.779C240.677 274.731 240.922 275.217 241.157 275.683C241.179 275.725 241.201 275.769 241.221 275.811L246.301 283.938L249.856 289.525C250.009 289.792 250.162 290.05 250.311 290.302C251.318 292.009 252.159 293.432 251.888 295.113C251.577 297.041 246.706 305.725 246.301 306.287C244.804 308.528 244.122 309.243 243.253 309.335H242.237C241.636 309.347 241.181 308.86 240.205 307.303L228.015 285.97L214.808 262.604L199.57 235.176L191.951 220.953C191.229 219.511 190.656 218.983 189.107 218.921C189.107 218.921 133.301 219.202 132.014 218.921Z" fill="#4E86AE" stroke="#CAE7FF" stroke-opacity="0.75" stroke-width="6" stroke-linejoin="round"/>
<path d="M364.829 199.15C365.494 199.241 366.072 199.655 366.372 200.256C389.132 245.869 383.364 302.399 347.441 342.265C323.394 368.949 290.496 382.988 257.045 383.999C256.359 384.02 255.708 383.693 255.316 383.13C254.923 382.567 254.842 381.844 255.099 381.207L263.853 359.556L263.91 359.429C264.21 358.811 264.806 358.383 265.494 358.3C289.144 355.455 311.793 344.431 328.832 325.522C355.645 295.767 361.577 254.232 347.345 218.929C347.055 218.209 347.201 217.386 347.72 216.809L363.045 199.803L363.132 199.713C363.579 199.275 364.204 199.065 364.829 199.15Z" fill="#1ABEBF"/>
<path d="M364.626 200.636C364.8 200.66 364.952 200.769 365.03 200.926C387.527 246.013 381.818 301.874 346.326 341.26C322.567 367.627 290.061 381.501 256.999 382.5C256.819 382.505 256.649 382.419 256.547 382.273C256.445 382.126 256.423 381.936 256.49 381.769L265.235 360.138L265.265 360.073C265.345 359.918 265.498 359.811 265.674 359.79C289.667 356.903 312.654 345.716 329.946 326.526C357.161 296.325 363.172 254.177 348.736 218.368C348.661 218.179 348.699 217.964 348.835 217.813L364.15 200.817L364.183 200.784C364.3 200.669 364.463 200.614 364.626 200.636Z" stroke="#1A9394" stroke-opacity="0.6" stroke-width="3"/>
<path d="M251.38 128C282.924 128 311.862 139.105 334.429 157.589C334.892 157.968 335.165 158.532 335.174 159.13C335.182 159.729 334.927 160.301 334.475 160.694L318.095 174.932C317.367 175.565 316.295 175.598 315.529 175.012C297.799 161.468 275.569 153.397 251.38 153.397C216.371 153.397 185.457 170.305 166.363 196.253C165.98 196.773 165.373 197.08 164.726 197.08H139.334C138.611 197.08 137.942 196.695 137.578 196.07C137.215 195.445 137.211 194.674 137.567 194.045C159.949 154.624 202.532 128 251.38 128Z" fill="#1ABEBF"/>
<path d="M251.38 129.5C282.566 129.5 311.17 140.477 333.478 158.749C333.6 158.849 333.671 158.996 333.674 159.152C333.676 159.309 333.609 159.459 333.491 159.562L317.111 173.8C316.922 173.965 316.641 173.974 316.439 173.82C298.457 160.082 275.908 151.897 251.38 151.897C215.877 151.898 184.521 169.045 165.155 195.363C165.055 195.499 164.896 195.58 164.727 195.58H139.334C139.169 195.58 139.014 195.503 138.914 195.374L138.875 195.315C138.78 195.152 138.779 194.951 138.872 194.786C160.995 155.819 203.09 129.5 251.38 129.5Z" stroke="#1A9394" stroke-opacity="0.6" stroke-width="3"/>
</svg>
