<svg width="512" height="512" viewBox="0 0 512 512" fill="none" xmlns="http://www.w3.org/2000/svg">
<path d="M366.457 158.159C366.528 158.159 366.64 158.187 366.879 158.361C367.115 158.572 367.183 158.741 367.18 158.956C367.176 159.228 367.056 159.617 366.759 160.249L361.715 166.806L351.556 180.013L351.553 180.018L339.362 196.272L327.171 212.526L327.169 212.53L312.946 231.832L312.939 231.841L298.717 252.159L298.708 252.172L283.47 275.538L283.462 275.55L272.287 293.836L272.273 293.86L265.162 307.066L265.156 307.079C257.796 321.681 249.289 338.569 242.431 352.06C239.002 358.806 235.985 364.702 233.731 369.038C232.605 371.205 231.669 372.981 230.969 374.278C230.257 375.595 229.809 376.375 229.646 376.591C228.989 377.467 227.674 378.14 226.243 378.183C224.839 378.225 223.36 377.661 222.337 376.108C221.218 374.41 198.434 334.999 176.071 296.014C164.894 276.528 153.828 257.159 145.637 242.679C141.541 235.439 138.164 229.422 135.853 225.225C134.696 223.126 133.809 221.485 133.23 220.374C133.041 220.011 132.887 219.706 132.768 219.463C132.796 219.464 132.824 219.466 132.854 219.467C133.337 219.481 134.006 219.493 134.831 219.502C136.483 219.522 138.77 219.534 141.477 219.54C146.891 219.554 153.988 219.544 161.044 219.527C168.1 219.509 175.117 219.483 180.369 219.461C182.995 219.45 185.18 219.44 186.709 219.433C187.473 219.43 188.073 219.426 188.482 219.424C188.687 219.423 188.844 219.423 188.949 219.422C189.002 219.422 189.042 219.421 189.068 219.421H189.087C189.809 219.45 190.225 219.584 190.539 219.82C190.868 220.066 191.149 220.469 191.504 221.177L191.51 221.189L199.129 235.412L199.133 235.418L214.371 262.847L214.373 262.85L227.579 286.215L227.581 286.218L239.771 307.551C239.775 307.557 239.778 307.563 239.781 307.569C240.268 308.345 240.652 308.9 241.006 309.258C241.377 309.634 241.763 309.84 242.237 309.833V309.835H243.253C243.27 309.835 243.288 309.834 243.306 309.832C243.89 309.771 244.379 309.492 244.896 308.969C245.4 308.461 245.969 307.684 246.717 306.565L246.716 306.564C246.85 306.372 247.241 305.704 247.737 304.82C248.258 303.893 248.916 302.69 249.572 301.445C250.228 300.2 250.883 298.908 251.395 297.803C251.65 297.251 251.873 296.741 252.042 296.304C252.208 295.876 252.334 295.488 252.382 295.192C252.686 293.302 251.726 291.716 250.741 290.048C250.592 289.796 250.442 289.539 250.29 289.276L250.278 289.257L246.723 283.669L241.657 275.566C241.639 275.529 241.621 275.491 241.604 275.457C241.482 275.217 241.41 275.062 241.396 274.875C241.382 274.702 241.418 274.441 241.655 274.027C241.931 273.544 242.669 272.559 243.363 271.665C243.705 271.224 244.028 270.815 244.267 270.516C244.386 270.367 244.484 270.246 244.552 270.162C244.586 270.119 244.612 270.086 244.63 270.064C244.635 270.058 244.638 270.053 244.642 270.048L261.893 252.799L282.202 232.489L303.523 213.199L331.968 187.802L331.967 187.801L355.328 167.489L355.327 167.488L365.963 158.373C366.244 158.19 366.379 158.158 366.457 158.159Z" fill="#0D2A42" stroke="#081F3B" stroke-linejoin="round"/>
<path d="M364.626 200.636C364.8 200.66 364.952 200.769 365.03 200.926C387.527 246.013 381.818 301.874 346.326 341.26C322.567 367.627 290.061 381.501 256.999 382.5C256.819 382.505 256.649 382.419 256.547 382.273C256.445 382.126 256.423 381.936 256.49 381.769L265.235 360.138L265.265 360.073C265.345 359.918 265.498 359.811 265.674 359.79C289.667 356.903 312.654 345.716 329.946 326.526C357.161 296.325 363.172 254.177 348.736 218.368C348.661 218.179 348.699 217.964 348.835 217.813L364.149 200.817L364.183 200.784C364.299 200.669 364.463 200.614 364.626 200.636Z" fill="#1ABEBF" stroke="#17BBBD" stroke-width="3"/>
<path d="M251.38 129.5C282.566 129.5 311.17 140.477 333.478 158.749C333.6 158.849 333.672 158.996 333.674 159.152C333.676 159.309 333.609 159.459 333.491 159.562L317.111 173.8C316.922 173.965 316.641 173.974 316.439 173.82C298.457 160.082 275.908 151.897 251.38 151.897C215.877 151.898 184.521 169.045 165.155 195.363C165.055 195.499 164.896 195.58 164.727 195.58H139.334C139.169 195.58 139.014 195.503 138.914 195.374L138.875 195.315C138.78 195.152 138.779 194.951 138.872 194.786C160.995 155.819 203.09 129.5 251.38 129.5Z" fill="#1ABEBF" stroke="#17BBBD" stroke-width="3"/>
</svg>
