<svg width="512" height="512" viewBox="0 0 512 512" fill="none" xmlns="http://www.w3.org/2000/svg">
<path fill-rule="evenodd" clip-rule="evenodd" d="M8.02769 181.843C5.45264 181.281 183.325 489.919 187.839 496.767C192.353 503.615 201.046 501.846 204.093 497.782C207.141 493.719 245.766 417.015 275.205 358.606L289.427 332.194L311.777 295.622L342.253 248.891L370.698 208.256L399.142 169.652L423.524 137.144L447.905 104.636L468.222 78.2229L478.381 65.0164C479.64 62.3707 479.728 61.1109 478.381 59.937C477.276 59.1232 476.607 59.0983 475.334 59.937L454 78.2229L407.27 118.858L350.38 169.652L307.713 208.256L267.078 248.891L232.538 283.431C232.538 283.431 227.631 289.479 226.442 291.558C225.354 293.462 225.845 294.435 226.314 295.365C226.357 295.45 226.401 295.537 226.442 295.622L236.601 311.876L243.712 323.051C244.019 323.583 244.324 324.1 244.621 324.604C246.637 328.018 248.317 330.865 247.776 334.225C247.155 338.082 237.413 355.45 236.601 356.575C233.608 361.055 232.245 362.487 230.506 362.67H228.474C227.272 362.694 226.363 361.72 224.411 358.606L200.03 315.939L173.617 269.209L143.14 214.351L127.902 185.906C126.458 183.022 125.312 181.965 122.213 181.843C122.213 181.843 10.6027 182.405 8.02769 181.843Z" fill="#4E86AE" stroke="#CAE7FF" stroke-opacity="0.75" stroke-width="6" stroke-linejoin="round"/>
<path d="M473.657 142.3C474.989 142.481 476.144 143.31 476.745 144.512C522.264 235.738 510.728 348.798 438.881 428.529C390.788 481.899 324.992 509.976 258.09 511.998C256.718 512.04 255.416 511.387 254.631 510.26C253.847 509.134 253.685 507.687 254.199 506.415L271.707 463.113L271.82 462.859C272.421 461.622 273.611 460.767 274.989 460.601C322.287 454.91 367.585 432.863 401.664 395.045C455.29 335.534 467.154 252.464 438.691 181.858C438.11 180.418 438.401 178.772 439.441 177.618L470.09 143.606L470.264 143.425C471.157 142.55 472.409 142.13 473.657 142.3Z" fill="#1ABEBF"/>
<path d="M471.323 144.488C471.886 143.941 472.672 143.68 473.455 143.786C474.295 143.901 475.024 144.423 475.403 145.182C520.659 235.881 509.182 348.273 437.767 427.525C389.961 480.576 324.557 508.488 258.044 510.498C257.177 510.524 256.357 510.112 255.863 509.403C255.399 508.737 255.279 507.893 255.533 507.128L255.589 506.977L273.089 463.695L273.178 463.495C273.56 462.726 274.307 462.194 275.168 462.09C322.811 456.358 368.446 434.148 402.779 396.049C456.806 336.092 468.75 252.409 440.082 181.297C439.716 180.388 439.899 179.35 440.555 178.622L471.181 144.634L471.323 144.488Z" stroke="#1A9394" stroke-opacity="0.6" stroke-width="3"/>
<path d="M246.76 0C309.849 0 367.724 22.2091 412.859 59.1771C413.785 59.9357 414.33 61.0637 414.347 62.2605C414.365 63.4575 413.854 64.6021 412.95 65.3875L380.19 93.864C378.734 95.1293 376.59 95.1956 375.057 94.0247C339.598 66.9353 295.139 50.7941 246.76 50.7941C176.742 50.7941 114.914 84.6091 76.7268 136.505C75.961 137.546 74.745 138.16 73.4529 138.16H22.6687C21.2222 138.16 19.8846 137.39 19.1568 136.14C18.4294 134.89 18.4211 133.348 19.135 132.091C63.8971 53.2479 149.065 0 246.76 0Z" fill="#1ABEBF"/>
<path d="M246.761 1.5C309.491 1.5001 367.032 23.5815 411.908 60.3369C412.492 60.8158 412.836 61.5279 412.848 62.2822C412.858 62.9906 412.575 63.6701 412.07 64.1602L411.966 64.2559L379.206 92.7314C378.288 93.5289 376.935 93.5722 375.968 92.833C340.256 65.5501 295.478 49.294 246.761 49.2939C176.248 49.2939 113.978 83.3501 75.5184 135.616C75.0357 136.272 74.2688 136.66 73.453 136.66H22.6688C21.7568 136.66 20.9124 136.175 20.453 135.386C20.0228 134.646 19.9913 133.745 20.3602 132.981L20.4393 132.831C64.9438 54.4422 149.623 1.5 246.761 1.5Z" stroke="#1A9394" stroke-opacity="0.6" stroke-width="3"/>
</svg>
